<?xml version="1.0" standalone="no"?>
<!DOCTYPE svg PUBLIC "-//W3C//DTD SVG 20010904//EN"
 "http://www.w3.org/TR/2001/REC-SVG-20010904/DTD/svg10.dtd">
<svg version="1.0" xmlns="http://www.w3.org/2000/svg"
 width="1008.000000pt" height="1008.000000pt" viewBox="0 0 1008.000000 1008.000000"
 preserveAspectRatio="xMidYMid meet">
<metadata>
Created by potrace 1.11, written by Peter Selinger 2001-2013
</metadata>
<g transform="translate(0.000000,1008.000000) scale(0.100000,-0.100000)"
fill="#000000" stroke="none">
<path d="M40 5040 l0 -5000 5000 0 5000 0 0 5000 0 5000 -5000 0 -5000 0 0
-5000z m4480 2665 l0 -1685 -1685 0 -1685 0 0 1685 0 1685 1685 0 1685 0 0
-1685z m1280 -2605 l0 -420 -80 0 -80 0 0 41 0 41 -39 -35 c-101 -91 -268 -66
-342 51 -38 60 -49 101 -49 183 0 130 56 229 154 275 80 37 183 29 233 -18
l23 -21 0 161 0 162 90 0 90 0 0 -420z m311 381 c75 -76 -15 -185 -114 -140
-26 12 -47 47 -47 79 0 83 101 121 161 61z m-4414 -240 c23 -11 49 -31 58 -45
l17 -26 41 35 c105 90 250 69 309 -44 l28 -53 0 -214 0 -214 -85 0 -85 0 0
174 c0 192 -8 229 -51 251 -25 14 -33 14 -63 1 -56 -23 -60 -41 -64 -243 l-4
-183 -84 0 -84 0 0 175 c0 195 -9 238 -55 255 -33 13 -88 -9 -107 -42 -9 -16
-14 -79 -16 -205 l-4 -183 -84 0 -84 0 0 285 0 285 75 0 75 0 0 -42 0 -42 33
32 c64 62 154 79 234 43z m990 -17 c27 -17 59 -49 75 -75 32 -51 53 -152 44
-204 l-7 -35 -184 0 c-102 0 -185 -2 -185 -5 0 -20 35 -67 59 -79 43 -23 119
-29 190 -16 35 6 67 8 72 3 4 -4 11 -31 15 -60 l6 -52 -43 -12 c-24 -7 -93
-13 -154 -14 -101 0 -115 2 -167 28 -99 49 -148 132 -148 253 0 95 25 160 86
221 64 64 119 84 221 79 59 -2 82 -8 120 -32z m650 17 c23 -11 49 -31 58 -45
l17 -26 41 35 c105 90 250 69 309 -44 l28 -53 0 -214 0 -214 -85 0 -85 0 0
174 c0 192 -8 229 -51 251 -25 14 -33 14 -63 1 -56 -23 -60 -41 -64 -243 l-4
-183 -84 0 -84 0 0 175 c0 195 -9 238 -55 255 -33 13 -88 -9 -107 -42 -9 -16
-14 -79 -16 -205 l-4 -183 -84 0 -84 0 0 285 0 285 75 0 75 0 0 -42 0 -42 33
32 c64 62 154 79 234 43z m918 8 c58 -15 120 -68 139 -122 10 -30 16 -101 20
-244 l5 -203 -79 0 -78 0 -7 30 -7 30 -29 -24 c-56 -48 -154 -59 -225 -27
-128 58 -137 236 -15 316 44 30 139 55 203 55 40 0 48 3 48 18 0 63 -124 77
-250 28 -11 -5 -19 8 -31 50 l-17 55 27 11 c88 36 215 47 296 27z m2395 -5
c39 -12 66 -29 106 -69 66 -66 90 -134 81 -236 -9 -111 -61 -190 -155 -236
-50 -24 -68 -28 -147 -28 -78 1 -97 4 -141 27 -29 15 -68 46 -88 70 -100 116
-81 327 36 421 78 62 201 83 308 51z m950 0 c39 -12 66 -29 106 -69 66 -66 90
-134 81 -236 -9 -111 -61 -190 -155 -236 -50 -24 -68 -28 -147 -28 -78 1 -97
4 -141 27 -29 15 -68 46 -88 70 -100 116 -81 327 36 421 78 62 201 83 308 51z
m650 -69 l0 -85 -39 0 c-57 0 -88 -15 -111 -52 -18 -29 -20 -51 -20 -195 l0
-163 -90 0 -90 0 0 285 0 285 75 0 75 0 0 -44 c0 -25 5 -48 10 -51 6 -3 10 -2
10 4 0 18 54 74 85 87 16 7 45 13 63 14 l32 0 0 -85z m398 70 c20 -9 47 -25
59 -37 l23 -21 6 31 7 32 74 0 74 0 -3 -303 -3 -303 -30 -60 c-37 -73 -96
-115 -184 -134 -94 -20 -268 -2 -305 31 -5 4 -1 35 9 72 l17 65 54 -19 c65
-23 154 -25 195 -4 39 21 69 71 69 118 l0 37 -41 -27 c-97 -64 -244 -33 -308
64 -42 63 -54 114 -49 204 4 61 10 87 35 130 65 116 193 168 301 124z m-3916
-184 c3 -185 4 -190 27 -215 35 -38 92 -36 132 3 l29 29 0 186 0 186 90 0 90
0 0 -285 0 -285 -74 0 -74 0 -7 39 -6 39 -25 -25 c-58 -58 -166 -79 -241 -48
-48 20 -70 41 -96 90 -20 37 -22 58 -25 258 l-4 217 91 0 90 0 3 -189z m1398
-96 l0 -285 -90 0 -90 0 0 285 0 285 90 0 90 0 0 -285z m953 -115 c62 -69 14
-180 -78 -180 -82 0 -129 85 -93 166 28 60 122 68 171 14z m-2563 -2395 l0
-1685 -1685 0 -1685 0 0 1685 0 1685 1685 0 1685 0 0 -1685z m4500 0 l0 -1685
-1685 0 -1685 0 0 1685 0 1685 1685 0 1685 0 0 -1685z"/>
<path d="M2580 8905 c-183 -40 -271 -85 -364 -186 -127 -137 -179 -346 -137
-551 24 -120 60 -194 155 -326 84 -115 120 -183 141 -263 21 -77 19 -132 -14
-345 -41 -261 -45 -308 -31 -400 31 -213 132 -304 334 -304 107 0 181 21 262
74 49 33 199 187 286 296 184 228 297 486 337 768 25 172 26 232 5 394 -23
179 -56 297 -118 423 -120 242 -284 371 -540 426 -114 24 -185 23 -316 -6z
m247 -270 c199 -47 372 -182 457 -357 80 -165 85 -352 19 -633 -57 -241 -139
-433 -250 -580 -142 -190 -239 -259 -363 -260 -96 0 -153 25 -188 83 -24 42
-27 56 -27 142 0 58 5 108 14 127 7 18 47 62 88 98 128 112 145 141 145 243 1
92 -30 147 -107 192 -168 98 -270 302 -282 561 -9 187 29 275 144 337 111 59
232 75 350 47z"/>
<path d="M2655 8505 c-14 -13 -25 -29 -25 -34 0 -25 23 -62 79 -125 34 -38 61
-77 61 -87 0 -24 -18 -33 -139 -68 -119 -34 -151 -52 -151 -85 0 -48 42 -68
217 -105 181 -38 246 -63 299 -116 70 -70 80 -147 39 -289 -31 -105 -32 -136
-6 -136 25 0 108 91 132 146 72 163 65 445 -17 606 -32 64 -132 163 -237 236
-123 85 -206 104 -252 57z"/>
<path d="M2907 7226 c-88 -89 -95 -94 -152 -106 -130 -27 -183 -59 -205 -125
-14 -42 -6 -71 28 -107 71 -76 194 -49 298 65 65 70 155 234 162 292 4 44 -8
75 -30 75 -5 0 -51 -42 -101 -94z"/>
<path d="M5435 5087 c-76 -76 -50 -240 43 -267 31 -10 45 -9 75 4 49 20 67 63
67 157 0 67 -2 73 -34 105 -28 28 -42 34 -76 34 -34 0 -48 -6 -75 -33z"/>
<path d="M2493 5130 c-23 -9 -63 -65 -63 -87 0 -10 28 -13 105 -13 116 0 120
3 90 61 -23 44 -79 60 -132 39z"/>
<path d="M4135 4935 c-45 -16 -65 -38 -65 -72 0 -64 89 -85 141 -34 24 24 29
38 29 75 0 45 -1 46 -32 46 -18 -1 -51 -7 -73 -15z"/>
<path d="M6484 5115 c-79 -55 -72 -266 11 -303 88 -40 156 27 156 153 0 106
-40 165 -111 165 -20 0 -45 -7 -56 -15z"/>
<path d="M7434 5115 c-79 -55 -72 -266 11 -303 88 -40 156 27 156 153 0 106
-40 165 -111 165 -20 0 -45 -7 -56 -15z"/>
<path d="M8545 5098 c-70 -55 -74 -192 -7 -251 11 -10 38 -21 60 -24 33 -4 44
-1 73 25 32 28 34 34 37 106 5 84 -8 128 -42 151 -31 22 -89 19 -121 -7z"/>
</g>
</svg>
