<?xml version="1.0" encoding="utf-8"?>
<!-- Generator: Adobe Illustrator 16.0.0, SVG Export Plug-In . SVG Version: 6.00 Build 0)  -->
<!DOCTYPE svg PUBLIC "-//W3C//DTD SVG 1.1//EN" "http://www.w3.org/Graphics/SVG/1.1/DTD/svg11.dtd">
<svg version="1.1" id="Calque_1" xmlns="http://www.w3.org/2000/svg" xmlns:xlink="http://www.w3.org/1999/xlink" x="0px" y="0px"
	 width="300px" height="300px" viewBox="0 0 300 300" enable-background="new 0 0 300 300" xml:space="preserve">
<g>
	<path opacity="0.9" fill="#32386D" d="M147.417,219.945c0.612-1.963,1.186-3.928,1.735-5.903c0.548-1.986,0.883-4.156,2.018-5.923
		c0.335-0.534,0.737-0.956,1.261-1.292c1.028-0.663,1.793-0.402,2.326-1.656c0.37-0.87,0.529-1.993-0.528-2.41
		c-1.796-0.702-10.131-2.539-1.063-17.464c9.063-14.927,13.333-7.411,13.333-7.411s0.85,1.581,2.068,1.241
		c1.213-0.333,0.733-1.497,1.224-2.856c0.487-1.36,0.736-3.301,4.282-5.259c3.55-1.949,11.156-7.601,13.019-17.77
		c1.868-10.168-4.495-18.888-6.386-20.727c-1.884-1.841-7.604-6.606-7.604-6.606s-6.101-4.26-8.373-5.592
		c-2.268-1.334-12.362-5.179-21.678-0.695c-9.315,4.477-12.763,13.302-13.711,17.239c-0.948,3.939-2.759,4.69-3.94,5.519
		c-1.182,0.832-2.432,0.676-2.437,1.936c-0.006,1.262,1.743,1.669,1.743,1.669s8.379,2.138-3.634,14.812
		c-12.006,12.681-15.975,5.125-17.122,3.58c-0.684-0.908-1.725-0.466-2.471,0.123c-1.064,0.849-0.613,1.516-0.981,2.681
		c-0.186,0.597-0.487,1.095-0.908,1.56c-1.41,1.561-3.415,2.457-5.184,3.507c-1.764,1.048-3.509,2.119-5.238,3.23
		c-9.673,6.204-15.589,21.139-11.392,31.806c4.197,10.662,17.637,20.393,17.637,20.393s12.931,10.399,24.329,11.644
		C131.136,240.556,143.98,230.911,147.417,219.945z"/>
	<g>
		<g>
			<g>
				<g>
					<g>
						<g>
							<path fill="#32386D" d="M209.672,87.405c-0.237,0.307-0.676,0.366-0.982,0.132l-8.813-6.729
								c-0.307-0.233-0.366-0.673-0.132-0.982l0.07-0.091c0.233-0.309,0.678-0.368,0.982-0.134l8.815,6.729
								c0.305,0.234,0.363,0.675,0.127,0.981L209.672,87.405z"/>
						</g>
						<path fill="#32386D" d="M199.743,81.08c-0.5,0.655-1.435,0.779-2.09,0.278l0,0c-0.65-0.497-0.775-1.431-0.277-2.084
							l1.282-1.679c0.5-0.654,1.432-0.779,2.083-0.282l0,0c0.654,0.5,0.781,1.434,0.283,2.088L199.743,81.08z"/>
					</g>
					<g>
						<g>
							<path fill="#32386D" d="M214.033,81.688c-0.233,0.309-0.675,0.368-0.981,0.134l-8.813-6.729
								c-0.306-0.232-0.364-0.673-0.129-0.981l0.068-0.091c0.235-0.307,0.675-0.367,0.98-0.133l8.814,6.729
								c0.306,0.233,0.367,0.674,0.133,0.981L214.033,81.688z"/>
						</g>
						<path fill="#32386D" d="M204.106,75.363c-0.499,0.653-1.433,0.779-2.087,0.279l0,0c-0.652-0.498-0.777-1.432-0.281-2.086
							l1.281-1.675c0.5-0.655,1.433-0.782,2.088-0.282l0,0c0.651,0.498,0.776,1.433,0.278,2.088L204.106,75.363z"/>
					</g>
				</g>
				<g>
					<g>
						<g>
							<path fill="#32386D" d="M207.356,71.644c0.238-0.309,0.677-0.368,0.986-0.131l8.811,6.728
								c0.311,0.236,0.368,0.674,0.13,0.982l-0.068,0.092c-0.234,0.308-0.673,0.365-0.982,0.129l-8.809-6.725
								c-0.311-0.238-0.371-0.674-0.137-0.984L207.356,71.644z"/>
						</g>
						<path fill="#32386D" d="M217.287,77.969c0.496-0.654,1.435-0.778,2.088-0.278l0,0c0.65,0.496,0.779,1.434,0.279,2.086
							l-1.277,1.675c-0.502,0.656-1.439,0.78-2.089,0.284l0,0c-0.655-0.501-0.781-1.437-0.281-2.091L217.287,77.969z"/>
					</g>
					<g>
						<g>
							<path fill="#32386D" d="M202.997,77.359c0.235-0.308,0.673-0.367,0.984-0.128l8.808,6.723
								c0.311,0.236,0.368,0.675,0.136,0.984l-0.071,0.093c-0.232,0.307-0.675,0.368-0.984,0.13l-8.811-6.726
								c-0.31-0.236-0.367-0.678-0.133-0.983L202.997,77.359z"/>
						</g>
						<path fill="#32386D" d="M212.926,83.683c0.499-0.652,1.432-0.779,2.087-0.277l0,0c0.65,0.495,0.779,1.432,0.281,2.085
							l-1.28,1.679c-0.502,0.653-1.438,0.775-2.087,0.278l0,0c-0.654-0.498-0.783-1.434-0.283-2.087L212.926,83.683z"/>
					</g>
				</g>
			</g>
			<g>
				<g>
					<path fill="#32386D" d="M219.341,73.011c-0.609,0.796-1.827,0.885-2.731,0.195l-4.131-3.153
						c-0.902-0.689-1.139-1.889-0.531-2.688l5.612-7.352c0.608-0.794,1.827-0.885,2.731-0.195l4.13,3.154
						c0.905,0.688,1.139,1.89,0.532,2.685L219.341,73.011z"/>
				</g>
				<path fill="#32386D" d="M223.143,73.108c-0.336,0.444-0.932,0.551-1.325,0.25l-10.862-8.293
					c-0.395-0.299-0.443-0.898-0.106-1.341l1.651-2.164c0.338-0.441,0.933-0.552,1.326-0.251l10.859,8.29
					c0.392,0.301,0.446,0.908,0.11,1.347L223.143,73.108z"/>
			</g>
			<g>
				<g>
					<path fill="#32386D" d="M217.031,73.343l-4.854-3.706l-13.346,15.17l7.14,5.45L217.031,73.343z M203.201,85.003
						c-0.149,0.193-0.39,0.261-0.535,0.15l-0.398-0.305c-0.146-0.111-0.146-0.36,0.003-0.555l8.773-11.488
						c0.151-0.201,0.391-0.268,0.536-0.157l0.401,0.305c0.144,0.112,0.144,0.36-0.01,0.56L203.201,85.003z M205.562,86.807
						c-0.148,0.193-0.388,0.262-0.533,0.15l-0.402-0.307c-0.149-0.114-0.144-0.361,0.004-0.555l8.771-11.49
						c0.152-0.2,0.39-0.268,0.536-0.155l0.403,0.306c0.147,0.112,0.145,0.361-0.008,0.561L205.562,86.807z"/>
				</g>
			</g>
			
				<rect x="197.667" y="87.267" transform="matrix(0.7949 0.6067 -0.6067 0.7949 94.7216 -104.709)" fill="#32386D" width="9.138" height="0.963"/>
		</g>
	</g>
	<polygon fill="#32386D" points="198.352,85.388 138.446,159.247 144.262,163.688 150.079,168.13 205.541,90.875 	"/>
	<g>
		<g>
			<g>
				<path fill="#FFFFFF" d="M109.402,175.357c1.529,0.652,3.113-1.204,2.024-2.576c-0.624-0.796-1.785-0.898-2.492-0.153
					c-0.756,0.796-0.904,2.16-0.743,3.198c0.243,1.649,1.875,2.795,3.44,2.84c1.396,0.034,2.892-0.51,4.064-1.231
					c0.92-0.565,1.763-1.32,2.503-2.107c2.751-2.916,7.299-9.509,8.812-10.352c1.506-0.842,2.243-1.526,3.017-1.067
					c0.333,0.202,0.831,0.515,0.944,0.909c0.139,0.483-0.232,0.47-0.548,0.631c-1.058,0.562-1.21,2.122,0.13,2.444
					c0.724,0.177,1.245-0.429,1.494-1.029c0.32-0.766,0.069-1.585-0.336-2.273c-1.007-1.701-2.979-2.053-4.707-1.302
					c-2.783,1.204-4.427,3.583-4.427,3.583l-5.296,6.543c-0.57,0.706-1.227,1.36-1.903,1.962c-1.103,0.985-2.374,1.955-3.871,2.193
					c-0.462,0.071-0.953,0.101-1.388-0.083c-0.345-0.142-1.018-0.712-1.039-1.122C109.067,176,109.211,175.664,109.402,175.357z"/>
			</g>
			<g>
				<path fill="#FFFFFF" d="M142.197,200.395c-1.033-1.306,0.344-3.322,1.951-2.635c0.934,0.398,1.338,1.483,0.805,2.367
					c-0.566,0.94-1.846,1.437-2.889,1.563c-1.658,0.196-3.188-1.074-3.645-2.576c-0.4-1.336-0.271-2.923,0.111-4.249
					c0.311-1.031,0.812-2.044,1.376-2.966c2.094-3.417,7.248-9.55,7.666-11.228c0.411-1.674,0.875-2.568,0.227-3.193
					c-0.277-0.265-0.71-0.663-1.124-0.672c-0.499-0.003-0.39,0.35-0.465,0.695c-0.26,1.169-1.726,1.727-2.391,0.521
					c-0.359-0.654,0.09-1.311,0.599-1.712c0.657-0.513,1.508-0.487,2.282-0.275c1.906,0.523,2.769,2.334,2.501,4.201
					c-0.433,2.996-2.295,5.21-2.295,5.21l-4.914,6.834c-0.526,0.738-0.987,1.54-1.391,2.351c-0.656,1.327-1.258,2.808-1.089,4.319
					c0.045,0.456,0.147,0.94,0.44,1.312c0.229,0.297,0.955,0.796,1.355,0.708C141.668,200.888,141.952,200.661,142.197,200.395z"/>
			</g>
		</g>
	</g>
	<path fill="#FFFFFF" d="M135.594,188.868c-0.138,0.18-0.382,0.223-0.555,0.093l-12.723-9.715c-0.171-0.127-0.195-0.379-0.06-0.56
		l0.309-0.396c0.136-0.182,0.387-0.23,0.556-0.102l12.723,9.718c0.174,0.129,0.19,0.382,0.054,0.563L135.594,188.868z"/>
	<path fill="#32386D" d="M125.176,200.956l-5.917-4.519l-5.915-4.514c-2.313,3.029-6.856,15.774-6.856,15.774
		c-1.624,4.85-7.443,9.75-10.88,14.253c-3.442,4.508-0.494,6.114-0.494,6.114s2.334,2.426,5.775-2.079
		c3.438-4.507,6.627-11.412,10.88-14.255C111.769,211.731,122.863,203.986,125.176,200.956z"/>
	<g>
		<path fill="#FFFFFF" d="M114.391,194.306c4.364-7.507,14.865-20.457,14.971-20.584l70.151-87.447l0.322,0.259l-70.153,87.444
			c-0.101,0.131-10.587,13.053-14.934,20.53L114.391,194.306z"/>
		
			<rect x="158.896" y="73.177" transform="matrix(0.7913 0.6114 -0.6114 0.7913 119.9793 -67.6619)" fill="#FFFFFF" width="0.407" height="137.474"/>
		<path fill="#FFFFFF" d="M122.605,200.575l-0.3-0.287c6.071-6.165,15.776-19.687,15.87-19.819l65.867-90.723l0.332,0.24
			l-65.863,90.725C138.416,180.844,128.691,194.39,122.605,200.575z"/>
		
			<rect x="161.154" y="74.902" transform="matrix(0.7906 0.6123 -0.6123 0.7906 121.7255 -68.723)" fill="#FFFFFF" width="0.405" height="137.473"/>
	</g>
	<path fill="#32386D" d="M99.197,230.288c-0.154,0.205-0.444,0.248-0.649,0.09l-6.569-5.015c-0.202-0.152-0.236-0.442-0.083-0.647
		l1.15-1.505c0.152-0.202,0.444-0.247,0.647-0.093l6.569,5.019c0.204,0.152,0.235,0.446,0.082,0.647L99.197,230.288z"/>
</g>
</svg>
