<?xml version="1.0" standalone="no"?>
<!DOCTYPE svg PUBLIC "-//W3C//DTD SVG 20010904//EN"
 "http://www.w3.org/TR/2001/REC-SVG-20010904/DTD/svg10.dtd">
<svg version="1.0" xmlns="http://www.w3.org/2000/svg"
 width="512.000000pt" height="512.000000pt" viewBox="0 0 512.000000 512.000000"
 preserveAspectRatio="xMidYMid meet">
<metadata>
Created by potrace 1.14, written by Peter Selinger 2001-2017
</metadata>
<g transform="translate(0.000000,512.000000) scale(0.100000,-0.100000)"
fill="#000000" stroke="none">
<path d="M20 2560 l0 -2540 2540 0 2540 0 0 2540 0 2540 -2540 0 -2540 0 0
-2540z m2280 1355 l0 -855 -860 0 -860 0 0 855 0 855 860 0 860 0 0 -855z
m650 -1325 l0 -210 -40 0 c-27 0 -43 5 -47 15 -5 14 -7 14 -23 0 -29 -27 -90
-29 -127 -6 -49 31 -66 72 -61 149 4 59 7 67 41 98 29 27 45 34 78 34 22 0 49
-5 60 -10 18 -10 19 -7 19 65 l0 75 50 0 50 0 0 -210z m154 194 c32 -32 13
-74 -34 -74 -30 0 -50 16 -50 41 0 23 27 49 50 49 10 0 26 -7 34 -16z m-2377
-134 c5 -20 5 -20 30 0 34 27 96 27 123 0 l21 -21 26 21 c40 31 97 27 134 -9
29 -29 29 -31 29 -145 l0 -116 -39 0 -39 0 -4 95 c-5 111 -19 137 -63 117 -24
-11 -25 -14 -25 -112 l0 -100 -45 0 -45 0 0 88 c0 116 -26 157 -72 115 -15
-13 -18 -32 -18 -110 l0 -93 -45 0 -45 0 0 145 0 145 36 0 c27 0 37 -5 41 -20z
m633 5 c43 -22 78 -103 65 -146 -6 -17 -16 -19 -96 -19 -93 0 -107 -8 -64 -36
19 -13 39 -15 79 -11 52 5 55 4 61 -20 8 -35 0 -41 -68 -49 -75 -9 -138 14
-167 60 -26 43 -27 119 -2 165 34 63 126 90 192 56z m200 -6 l0 -20 26 20 c34
27 94 28 125 2 22 -18 24 -18 53 0 45 28 102 25 130 -6 29 -32 36 -64 36 -176
l0 -89 -45 0 -45 0 0 88 c0 116 -26 157 -72 115 -15 -13 -18 -32 -18 -110 l0
-93 -45 0 -45 0 0 94 c0 73 -4 98 -16 110 -45 45 -74 -1 -74 -116 l0 -88 -45
0 -45 0 0 145 0 145 40 0 c34 0 40 -3 40 -21z m631 4 c39 -23 48 -52 51 -171
l3 -102 -42 0 c-23 0 -43 5 -45 11 -2 6 -14 5 -33 -5 -43 -23 -79 -20 -114 10
-37 31 -43 87 -12 126 20 25 79 48 125 48 28 0 33 9 14 28 -15 15 -57 16 -94
2 -31 -12 -30 -13 -39 21 -6 23 -3 28 22 37 45 17 131 14 164 -5z m209 -67 c0
-109 10 -136 49 -136 42 0 51 23 51 129 l0 91 45 0 45 0 0 -145 0 -145 -40 0
c-27 0 -40 4 -40 14 0 10 -9 9 -40 -6 -50 -25 -97 -18 -131 18 -22 24 -24 35
-27 145 l-4 119 46 0 46 0 0 -84z m710 -61 l0 -145 -45 0 -45 0 0 145 0 145
45 0 45 0 0 -145z m297 125 c47 -29 66 -72 61 -142 -3 -47 -10 -64 -33 -88
-52 -54 -153 -63 -210 -18 -81 63 -71 194 17 248 44 26 122 27 165 0z m480 0
c47 -29 67 -65 67 -124 0 -115 -101 -183 -209 -141 -63 23 -90 65 -90 136 0
93 56 149 150 149 32 0 62 -7 82 -20z m203 -6 l0 -27 25 27 c14 15 35 26 50
26 22 0 25 -4 25 -38 0 -34 -3 -39 -32 -47 -44 -13 -58 -45 -58 -132 l0 -73
-45 0 -45 0 0 145 0 145 40 0 c37 0 40 -2 40 -26z m316 11 c25 -19 34 -19 34
1 0 12 9 14 38 12 l37 -3 0 -155 c0 -136 -2 -159 -20 -187 -26 -45 -70 -63
-148 -63 -78 0 -97 6 -97 30 0 43 9 48 71 43 66 -6 93 8 102 53 5 28 0 29 -27
9 -47 -35 -136 -2 -162 60 -43 103 18 215 117 215 19 0 44 -7 55 -15z m-808
-187 c18 -18 14 -63 -8 -83 -45 -41 -110 18 -76 70 18 27 63 34 84 13z m-1308
-1218 l0 -850 -850 0 -850 0 0 850 0 850 850 0 850 0 0 -850z m2290 -5 l0
-855 -855 0 -855 0 0 855 0 855 855 0 855 0 0 -855z"/>
<path d="M1287 4520 c-54 -14 -128 -54 -159 -87 -38 -39 -69 -116 -75 -182 -9
-94 11 -160 78 -261 32 -49 64 -101 69 -115 14 -38 12 -113 -6 -229 -36 -228
12 -328 160 -328 83 0 125 22 212 114 158 166 230 324 241 528 13 254 -79 457
-245 536 -47 23 -73 28 -147 30 -49 2 -107 -1 -128 -6z m197 -151 c69 -25 149
-96 184 -163 25 -47 27 -59 26 -166 -1 -94 -6 -131 -28 -205 -38 -124 -75
-198 -140 -277 -64 -77 -103 -101 -163 -101 -56 0 -90 24 -103 73 -18 67 -4
107 57 163 55 51 72 89 65 139 -4 28 -17 43 -91 106 -52 44 -85 110 -102 202
-15 86 -6 148 29 189 51 61 165 78 266 40z"/>
<path d="M1347 4323 c-15 -14 -5 -43 29 -84 42 -50 38 -57 -49 -83 -96 -29
-86 -65 22 -86 181 -36 223 -81 193 -208 -8 -34 -12 -65 -8 -69 3 -4 20 7 36
22 43 42 63 118 58 219 -7 127 -54 199 -178 275 -34 20 -90 28 -103 14z"/>
<path d="M1475 3670 c-34 -35 -60 -52 -85 -56 -76 -13 -116 -63 -86 -109 36
-54 130 -22 185 63 49 77 65 122 49 138 -12 12 -21 6 -63 -36z"/>
<path d="M2756 2578 c-22 -31 -20 -91 2 -111 22 -20 63 -22 80 -5 16 16 16
110 0 126 -20 20 -65 14 -82 -10z"/>
<path d="M1258 2599 c-36 -21 -21 -39 32 -39 52 0 60 8 34 34 -18 18 -41 20
-66 5z"/>
<path d="M2080 2495 c-17 -21 -8 -50 18 -53 30 -5 52 14 52 44 0 20 -5 24 -29
24 -16 0 -34 -7 -41 -15z"/>
<path d="M3293 2595 c-37 -26 -38 -123 0 -147 67 -43 122 78 62 137 -28 29
-33 30 -62 10z"/>
<path d="M3770 2590 c-27 -27 -28 -110 -2 -133 45 -41 92 -4 92 70 0 45 -25
83 -55 83 -8 0 -24 -9 -35 -20z"/>
<path d="M4336 2584 c-55 -54 1 -166 63 -127 20 13 28 108 10 129 -15 19 -54
18 -73 -2z"/>
</g>
</svg>
